<svg height="511pt" viewBox="-3 0 511 511.99838" width="511pt" xmlns="http://www.w3.org/2000/svg"><path d="m292.390625 68.152344h-101.269531c-105.277344 0-190.621094 85.34375-190.621094 190.625 0 83.75 54.011719 154.875 129.101562 180.464844 9.679688 3.296874 14.902344 13.902343 11.382813 23.503906-4.945313 13.484375-13.675781 27.050781-20.660156 36.675781-4.027344 5.546875.441406 13.300781 7.253906 12.523437 53.3125-6.097656 80.445313-38.621093 90.550781-54.207031 3.375-5.210937 9.167969-8.339843 15.378906-8.339843h58.886719c105.277344 0 190.621094-85.34375 190.621094-190.625 0-105.277344-85.34375-190.621094-190.625-190.621094zm0 0" fill="#e5e8ec"/><path d="m293.378906 68.164062-145.757812 145.757813c-3.996094 3.992187-6.730469 8.90625-8.078125 14.164063l-22.472657 83.921874c-5.773437 21.5625.445313 44.761719 16.226563 60.542969 11.84375 11.839844 27.585937 18.363281 44.332031 18.363281 5.472656 0 10.925782-.71875 16.214844-2.132812l83.847656-22.453125c5.28125-1.34375 10.222656-4.085937 14.238282-8.097656l149.789062-149.792969c11.539062-.050781 22.382812-4.570312 30.550781-12.738281l.035157-.035157c-25.945313-73.964843-96.199219-127.078124-178.925782-127.5zm0 0" fill="#dadadc"/><path d="m493.285156 52.496094-39.933594-39.929688c-16.75-16.753906-43.914062-16.753906-60.664062 0l-43.589844 43.585938 100.601563 100.601562 43.585937-43.589844c16.753906-16.753906 16.753906-43.914062 0-60.667968zm0 0" fill="#ff8892"/><path d="m472.683594 31.894531c16.75 16.753907 16.75 43.914063 0 60.667969l-43.589844 43.585938 20.605469 20.605468 43.585937-43.589844c16.753906-16.753906 16.753906-43.914062 0-60.667968zm0 0" fill="#ff5754"/><path d="m207.183594 298.664062-51.355469-11.914062-8.902344 33.25c-2.9375 10.96875.199219 22.667969 8.226563 30.695312 8.027344 8.03125 19.730468 11.167969 30.695312 8.230469l33.25-8.902343zm0 0" fill="#43596b"/><path d="m219.097656 350.023438 50.972656-13.648438 17.339844-49.675781-69.457031-69.457031-48.476563 18.535156-13.648437 50.972656zm0 0" fill="#ffd2b0"/><path d="m270.074219 336.378906-3.496094-40.796875-46.804687-9.503906-9.503907-46.804687-40.796875-3.496094 179.625-179.625 100.601563 100.601562zm0 0" fill="#ffb44f"/><g fill="#2d3c50"><path d="m274.105469 242.902344c-1.976563 0-3.957031-.753906-5.464844-2.261719l-7.359375-7.359375c-3.015625-3.019531-3.015625-7.910156 0-10.925781 3.019531-3.019531 7.910156-3.019531 10.925781 0l7.359375 7.359375c3.019532 3.015625 3.019532 7.90625 0 10.925781-1.507812 1.507813-3.484375 2.261719-5.460937 2.261719zm0 0"/><path d="m355.417969 161.589844c-1.976563 0-3.957031-.753906-5.464844-2.261719l-7.359375-7.359375c-3.015625-3.019531-3.015625-7.910156 0-10.929688 3.019531-3.015624 7.910156-3.015624 10.929688 0l7.355468 7.359376c3.019532 3.019531 3.019532 7.910156 0 10.929687-1.507812 1.507813-3.484375 2.261719-5.460937 2.261719zm0 0"/><path d="m305.398438 211.808594c-.566407 0-1.132813-.019532-1.703126-.054688-4.257812-.289062-7.476562-3.972656-7.191406-8.230468.285156-4.257813 3.964844-7.476563 8.226563-7.1875 3.0625.207031 6.160156-1.015626 8.496093-3.351563 2.332032-2.332031 3.554688-5.429687 3.347657-8.492187-.285157-4.257813 2.933593-7.941407 7.191406-8.226563 4.269531-.289063 7.941406 2.933594 8.226563 7.191406.503906 7.511719-2.351563 14.964844-7.839844 20.453125-5.074219 5.074219-11.828125 7.898438-18.753906 7.898438zm0 0"/></g><path d="m466.792969 139.660156-100.601563-100.601562c-4.917968-4.917969-12.890625-4.917969-17.808594 0l-16.378906 16.378906c-4.917968 4.917969-4.917968 12.890625 0 17.808594l100.601563 100.597656c4.917969 4.921875 12.890625 4.921875 17.808593 0l16.378907-16.375c4.917969-4.917969 4.917969-12.890625 0-17.808594zm0 0" fill="#e5e8ec"/></svg>