<svg xmlns="http://www.w3.org/2000/svg" xmlns:xlink="http://www.w3.org/1999/xlink" width="1920" height="1080" viewBox="0 0 1920 1080">
  <defs>
    <clipPath id="clip-Background-Login">
      <rect width="1920" height="1080"/>
    </clipPath>
  </defs>
  <g id="Background-Login" clip-path="url(#clip-Background-Login)">
    <path id="Trazado_12" data-name="Trazado 12" d="M0,105.432,64.386,91.079c64.386-13.816,193.157-43.326,321.929,0C515.086,133.6,643.858,248.958,772.63,305.7c128.772,57.277,257.543,57.277,386.315,7.243,128.772-50.57,257.543-149.831,386.315-157.477,128.772-7.109,257.543,78.738,321.929,121.662l64.386,42.924V405.9H0Z" transform="matrix(-0.53, -0.848, 0.848, -0.53, 1854.217, 649.804)" fill="#2970ff"/>
    <path id="Trazado_13" data-name="Trazado 13" d="M0,32,82.142,86.762c82.142,54.762,246.427,164.285,410.711,228.116C657.138,379.393,821.423,396.506,985.707,424.4c164.285,26.867,328.569,64.516,492.854-9.07s328.569-254.983,492.854-301.188,328.569,46.205,410.711,91.212l82.142,45.692V524.854H0Z" transform="translate(-231.83 597.573)" fill="gold"/>
    <path id="Trazado_11" data-name="Trazado 11" d="M0,293.162l64-9.711c64-10.444,192-28.767,320-58.632,128-28.767,256-69.076,384-78.238s256,9.161,384,58.632,256,126.426,384,97.66c128-29.866,256-165.453,320-234.53L1920,0V586.324H0Z" transform="matrix(0.891, 0.454, -0.454, 0.891, -461.469, 301.915)" fill="#09f"/>
    <path id="Trazado_14" data-name="Trazado 14" d="M0,501.831l86.291,9.528c86.291,10.247,258.873,28.224,431.455-47.82,172.582-76.763,345.164-249.345,517.747-345.164C1208.075,21.836,1380.657,3.859,1553.24,32.083c172.582,29.3,345.164,104.808,517.747,124.583s345.164-19.775,431.455-38.292l86.291-19.236V559.358H0Z" transform="translate(2428.052 -290.479) rotate(162)" fill="gold"/>
  </g>
</svg>
