<svg xmlns="http://www.w3.org/2000/svg" xmlns:xlink="http://www.w3.org/1999/xlink" width="1920" height="1080" viewBox="0 0 1920 1080">
  <defs>
    <clipPath id="clip-Website_background_image">
      <rect width="1920" height="1080"/>
    </clipPath>
  </defs>
  <g id="Website_background_image" data-name="Website background image" clip-path="url(#clip-Website_background_image)">
    <path id="Trazado_2" data-name="Trazado 2" d="M134.316-28.087C143.357,4.291,119.6,46.131,113.081,81.242c-6.728,35.111,3.995,63.705-5.046,84.52-8.83,21.025-37.424,34.27-60.341,28.594-22.707-5.677-39.947-30.486-50.88-51.511C-14.33,122.03-19.165,104.79-26.734,80.191S-44.185,23.634-33.252-8.954c11.143-32.378,43.1-65.177,80.1-70.013C83.646-83.8,125.485-60.465,134.316-28.087Z" transform="translate(21.117 650.747)" fill="#1a6efc"/>
    <path id="Trazado_3" data-name="Trazado 3" d="M161.54-6.519c25.242,32.835,45.353,63.412,53.972,102.608s5.746,87.012-19.5,100.351-73.057-7.388-118-10.466C33.279,183.1-8.79,198.287-34.442,184.743-60.094,171.4-69.534,129.334-71.176,85.828S-66.456-2.825-40.8-35.66,30-89.016,67.756-81.628C105.721-74.446,136.3-39.354,161.54-6.519Z" transform="translate(-86.041 761.664)" fill="#ffc33d"/>
    <path id="Trazado_4" data-name="Trazado 4" d="M297.774,14.878c23.68,48.514-2.021,118.4-38.407,164.89-36.674,46.781-84.322,70.172-131.97,69.883-47.359,0-94.718-23.391-135.724-72.482-40.717-49.092-75.081-123.6-51.4-172.11,23.679-48.8,105.4-71.327,182.794-68.728C200.745-61.358,273.805-33.924,297.774,14.878Z" transform="translate(1767.111 184.217)" fill="#ffc33d"/>
    <path id="Trazado_5" data-name="Trazado 5" d="M197.73-5.211c17.29,42.171-4.006,94.252-32.05,140.851-27.833,46.388-62.413,87.294-107.325,93.2S-41.8,206.066-57.194,166.847c-15.392-39.43,9.067-88.981,36.689-137.267C7.117-18.495,37.9-65.094,81.127-72.474,124.563-79.643,180.439-47.382,197.73-5.211Z" transform="translate(1788.18 341.535)" fill="#1a6efc"/>
  </g>
</svg>
